<svg version="1.1" viewBox="0 0 96 96" xmlns="http://www.w3.org/2000/svg" xmlns:xlink="http://www.w3.org/1999/xlink" id="Icons_Planet" overflow="hidden"><style>
.MsftOfcThm_Background1_lumMod_65_Fill {
 fill:#A6A6A6; 
}
</style>
<path d=" M 91.9 30 C 91.4 28.8 89 28.6 86 28.6 C 81.5 28.6 74.5 29.9 66.1 32.4 C 61.7 27.2 55.2 24 47.9 24 C 34.6 24 23.9 34.7 23.9 48 C 23.9 48.6 23.9 49.1 24 49.6 C 10.9 56.6 2.8 63.2 4.1 66.4 C 4.6 67.6 6.5 68.2 9.5 68.2 C 17.6 68.2 33.6 63.9 51.2 56.7 C 75.3 46.8 93.8 34.6 91.9 30 Z M 25.2 55.8 C 25.6 56.9 26 58 26.6 59 C 22.4 60.2 18.8 61 15.8 61.6 C 18.2 59.9 21.4 57.9 25.2 55.8 Z M 70.8 40.7 C 70.5 39.6 70.1 38.6 69.6 37.6 C 73.5 36.5 78.1 35.5 81 35 C 78.6 36.6 74.4 38.7 70.8 40.7 Z" class="MsftOfcThm_Background1_lumMod_65_Fill" stroke="none" stroke-width="1" stroke-dasharray="" stroke-dashoffset="1" fill="#A6A6A6" fill-opacity="0.619608"/><path d=" M 33.7 67.3 C 37.7 70.2 42.6 72 47.9 72 C 59.9 72 69.9 63.2 71.6 51.6 C 65.9 54.6 59.5 57.6 52.7 60.4 C 46.1 63.1 39.7 65.5 33.7 67.3 Z" class="MsftOfcThm_Background1_lumMod_65_Fill" stroke="none" stroke-width="1" stroke-dasharray="" stroke-dashoffset="1" fill="#A6A6A6" fill-opacity="0.619608"/></svg>